<svg width="0" height="0" class="hidden">
  <symbol version="1.0" xmlns="http://www.w3.org/2000/svg" preserveAspectRatio="xMidYMid meet" viewBox="0 0 194.000000 212.000000" id="logo">
    <g transform="translate(0.000000,212.000000) scale(0.100000,-0.100000)"  stroke="none">
      <path d="M865 1791 c-381 -63 -654 -425 -599 -795 25 -173 88 -299 205 -413
147 -142 302 -207 499 -207 163 0 297 45 426 142 168 127 269 315 281 527 20
343 -201 643 -537 730 -75 19 -206 27 -275 16z m125 -608 c0 -227 1 -236 17
-213 24 34 77 79 118 100 67 34 167 51 180 30 12 -19 -15 -37 -63 -44 -134
-18 -227 -114 -247 -254 -5 -41 -11 -52 -25 -52 -14 0 -19 11 -24 48 -20 141
-114 242 -243 258 -52 6 -80 24 -69 43 12 19 120 2 180 -28 39 -19 95 -67 119
-101 16 -23 17 -14 17 213 0 230 1 237 20 237 19 0 20 -7 20 -237z"></path>
    </g>
  </symbol>
</svg>